<?xml version="1.0" standalone="no"?><!DOCTYPE svg PUBLIC "-//W3C//DTD SVG 1.1//EN" "http://www.w3.org/Graphics/SVG/1.1/DTD/svg11.dtd"><svg t="1605105682193" class="icon" viewBox="0 0 1024 1024" version="1.1" xmlns="http://www.w3.org/2000/svg" p-id="4573" xmlns:xlink="http://www.w3.org/1999/xlink" width="200" height="200"><defs><style type="text/css"></style></defs><path d="M513.986596 673.997884v237.307936c0 4.334392 1.805996 8.668783 4.695591 11.558378 3.250794 2.889594 7.223986 4.695591 11.558377 4.69559H650.15873c4.334392 0 8.668783-1.805996 11.558378-4.69559 2.889594-2.889594 4.695591-7.223986 4.69559-11.558378v-316.410582l-122.085361 105.108995-30.340741-26.006349zM1.083598 911.667019c0 4.334392 1.805996 8.668783 4.695591 11.558378 3.250794 3.250794 7.223986 4.695591 11.558377 4.695591H137.255732c4.334392 0 8.668783-1.805996 11.558377-4.695591 2.889594-3.250794 4.695591-7.223986 4.695591-11.558378v-242.003527L1.083598 795.360847v116.306172z m256.451499-327.968959v327.968959c0 4.334392 1.805996 8.668783 4.695591 11.558378 3.250794 3.250794 7.223986 4.695591 11.558377 4.695591H393.707231c4.334392 0 8.668783-1.805996 11.558377-4.695591 2.889594-3.250794 4.695591-7.223986 4.695591-11.558378v-325.801763l-76.213051-65.015873-76.213051 62.848677z m513.264198 327.968959c0 4.334392 1.805996 8.668783 4.69559 11.558378 2.889594 3.250794 7.223986 4.695591 11.558378 4.695591h120.279365c4.334392 0 8.668783-1.805996 11.558377-4.695591 2.889594-3.250794 4.695591-7.223986 4.695591-11.558378V374.202469L770.799295 505.679012v405.988007z m-26.367549-815.588007c-2.167196 0-4.334392 1.444797-5.05679 3.250794-0.722399 2.167196-0.361199 4.334392 1.083598 6.140388l114.861375 113.055379-310.631393 267.287478-210.940388-179.877249L0 581.530864v118.834568l333.748148-275.595062 210.940388 179.51605 375.286067-322.91217 94.995415 93.189418c1.444797 1.444797 3.973192 1.805996 5.779188 1.083598 2.167196-0.722399 3.250794-2.889594 3.250794-5.05679V101.497002c0-1.444797-0.722399-2.889594-1.444797-3.973192-1.083598-1.083598-2.528395-1.444797-3.973192-1.444798h-274.150265z m0 0" p-id="4574"></path></svg>