<?xml version="1.0" standalone="no"?><!DOCTYPE svg PUBLIC "-//W3C//DTD SVG 1.1//EN" "http://www.w3.org/Graphics/SVG/1.1/DTD/svg11.dtd"><svg t="1607850495432" class="icon" viewBox="0 0 1024 1024" version="1.1" xmlns="http://www.w3.org/2000/svg" p-id="3567" xmlns:xlink="http://www.w3.org/1999/xlink" width="200" height="200"><defs><style type="text/css"></style></defs><path d="M537.206916 28.079217v430.659412a28.079217 28.079217 0 0 0 28.066836 28.079216h430.659412a28.054455 28.054455 0 0 0 28.042075-29.713456C1009.217555 211.448386 812.563995 14.794825 566.883231 0.049522a28.054455 28.054455 0 0 0-29.676315 28.029695z" p-id="3568"></path><path d="M487.684488 508.261057V77.601644a28.029694 28.029694 0 0 0-29.602031-28.042074c-255.535727 15.30243-458.082457 227.382227-458.082457 486.780703 0 269.315343 218.332003 487.647346 487.659727 487.647346 259.386096 0 471.478273-202.509588 486.768323-458.082456a28.017314 28.017314 0 0 0-28.029694-29.589651H515.751324a28.079217 28.079217 0 0 1-28.066836-28.054455z" p-id="3569"></path></svg>
