<?xml version="1.0" standalone="no"?><!DOCTYPE svg PUBLIC "-//W3C//DTD SVG 1.1//EN" "http://www.w3.org/Graphics/SVG/1.1/DTD/svg11.dtd"><svg t="1607867774561" class="icon" viewBox="0 0 1024 1024" version="1.1" xmlns="http://www.w3.org/2000/svg" p-id="8430" xmlns:xlink="http://www.w3.org/1999/xlink" width="200" height="200"><defs><style type="text/css"></style></defs><path d="M832 64H192C121.6 64 64 121.6 64 192v640c0 70.4 57.6 128 128 128h640c70.4 0 128-57.6 128-128V192c0-70.4-57.6-128-128-128zM320 800c0 17.6-14.4 32-32 32H224c-17.6 0-32-14.4-32-32V480c0-17.6 14.4-32 32-32h64c17.6 0 32 14.4 32 32v320z m256.608 0c0 17.6-14.4 32-32 32h-64c-17.6 0-32-14.4-32-32V352c0-17.6 14.4-32 32-32h64c17.6 0 32 14.4 32 32v448zM832 800c0 17.6-14.4 32-32 32h-64c-17.6 0-32-14.4-32-32V416c0-17.6 14.4-32 32-32h64c17.6 0 32 14.4 32 32v384z" p-id="8431"></path></svg>
